<svg xmlns="http://www.w3.org/2000/svg"
 viewBox="0 0 24 24"
  width="24"
 height="24"
 id="users"
 className="fill-white"
 >
  <path
   fill="white"
  transform="translate(2 2)"
   d="M12 2c-3.314 0-6 2.686-6 6s2.686 6 6 6 6-2.686 6-6-2.686-6-6-6zm-1.5 10c-2.485 0-4.5-1.567-4.5-3.5s2.015-3.5 4.5-3.5 4.5 1.567 4.5 3.5-2.015 3.5-4.5 3.5zm9.5 8h-17c-.553 0-1-.447-1-1s.447-1 1-1h17c.553 0 1 .447 1 1s-.447 1-1 1zm-4.196-6.628c1.496.555 2.696 1.755 3.252 3.252-.459 1.664-1.422 3.165-2.735 4.478-1.312-1.312-2.276-2.814-2.735-4.478.556-1.497 1.756-2.697 3.218-3.252zm-4.304-6.372c.459 1.664 1.422 3.165 2.735 4.478-1.312 1.312-2.276 2.814-2.735 4.478-.557-1.497-1.757-2.697-3.252-3.252 1.496-.555 2.696-1.755 3.252-3.252zm-4.304 6.372c1.462.555 2.662 1.755 3.218 3.252-.459 1.664-1.423 3.165-2.735 4.478-1.312-1.312-2.276-2.814-2.735-4.478.556-1.497 1.756-2.697 3.252-3.252z"/>
</svg>
